<svg id="Layer_1" data-name="Layer 1" xmlns="http://www.w3.org/2000/svg" viewBox="0 0 1000 1000"><defs><style>.cls-1{fill:#2376bc;}.cls-2,.cls-3{fill:#fff;stroke:#fff;}.cls-2{stroke-miterlimit:10;stroke-width:14px;}.cls-3{stroke-linejoin:round;stroke-width:38px;}</style></defs><title>buzzer-round</title><circle class="cls-1" cx="500" cy="500" r="500"/><path class="cls-2" d="M494.11,226.53c-2.42,7.87,2,13.79,9.42,13.69,74.9-2.2,143.23,20.42,192.54,69.73S767.91,427.5,765.81,502.5c-.23,7.56,5.72,11.75,13.69,9.42l.35-.16c7.53-2.27,14.12-10,14.32-17.33,2.52-80.86-21.78-154.64-74.86-207.71s-126.76-77.28-207.71-74.86c-7.34.2-15.06,6.79-17.33,14.32Z" transform="translate(0 0)"/><path class="cls-2" d="M636.21,369.63c-40.49-40.49-96.53-57.35-158.4-47.14-7.28,1.26-14,7.39-16.2,14.69h0c-2.61,8.44,2.58,14.89,11,13.47,54.88-9.41,104.33,6.14,140.41,42.21s51.5,85.65,42.21,140.41c-1.42,8.37,4.94,13.48,13.47,11l.56-.19c6.74-2,12.93-8.42,14.13-15.26C693.71,466.57,676.79,410.21,636.21,369.63Z" transform="translate(0 0)"/><path class="cls-2" d="M437.5,438.14l-.06.44c-2.33,8,2.15,14.2,9.76,13.53,31.23-2.67,59.06,4.06,80.76,25.76s28.44,49.53,25.76,80.76c-.7,7.84,5.53,12.31,13.53,9.76l.44-.06c7.53-2.27,13.65-9.71,14.26-16.89,3.15-37.53-5.24-71-30.88-96.68s-59.15-34-96.68-30.88C447.2,424.49,439.76,430.61,437.5,438.14Z" transform="translate(0 0)"/><polyline class="cls-3" points="605.11 731.84 262.12 388.85 205.66 652.31 341.65 788.3 605.11 731.84 262.12 388.85"/></svg>