<svg id="Layer_1" data-name="Layer 1" xmlns="http://www.w3.org/2000/svg" viewBox="0 0 300 801"><defs><style>.cls-1{fill:#dc3c26;}.cls-2{fill:#2376bc;}.cls-3{fill:#fff;}</style></defs><title>current-location-button</title><polygon class="cls-1" points="68 275 150 0 233 275 150 275 68 275"/><polygon class="cls-2" points="233 525 151 801 68 525 151 525 233 525"/><circle class="cls-3" cx="150" cy="400" r="150" transform="translate(-235 215) rotate(-44)"/><path class="cls-2" d="M240,314a125,125,0,1,1-177-4A125,125,0,0,1,240,314Z" transform="translate(0 0)"/><path class="cls-3" d="M204,348a75,75,0,1,1-106-2A75,75,0,0,1,204,348Z" transform="translate(0 0)"/><rect class="cls-3" x="107" y="258" width="10" height="50" transform="translate(-81 48) rotate(-18)"/><rect class="cls-3" x="73" y="275" width="10" height="50" transform="translate(-161 103) rotate(-36)"/><rect class="cls-3" x="46" y="302" width="10" height="50.01" transform="translate(-243 175) rotate(-54)"/><rect class="cls-3" x="28" y="336" width="10" height="50.01" transform="translate(-321 280) rotate(-72)"/><rect class="cls-3" x="22" y="375" width="10" height="50.01" transform="translate(-373 425) rotate(-90)"/><rect class="cls-3" x="28" y="413" width="10" height="50.01" transform="translate(-374 603) rotate(-108)"/><rect class="cls-3" x="45" y="447" width="10" height="50.01" transform="translate(-303 789) rotate(-126)"/><rect class="cls-3" x="72" y="474" width="10" height="50" transform="translate(-155 948) rotate(-144)"/><rect class="cls-3" x="107" y="492" width="10" height="50" transform="translate(56 1043) rotate(-162)"/><rect class="cls-3" x="145" y="498" width="10" height="50" transform="translate(297 1047) rotate(-180)"/><rect class="cls-3" x="183" y="492" width="10" height="50" transform="translate(525 953) rotate(162)"/><rect class="cls-3" x="217" y="475" width="10" height="50" transform="translate(695 776) rotate(144)"/><rect class="cls-3" x="245" y="448" width="10" height="50.01" transform="translate(778 551) rotate(126)"/><rect class="cls-3" x="262" y="414" width="10" height="50.01" transform="translate(767 322) rotate(108)"/><rect class="cls-3" x="268" y="375" width="10" height="50.01" transform="translate(675 129) rotate(90)"/><rect class="cls-3" x="262" y="337" width="10" height="50.01" transform="translate(531 -3) rotate(72)"/><rect class="cls-3" x="245" y="303" width="10" height="50.01" transform="translate(370 -66) rotate(54)"/><rect class="cls-3" x="218" y="276" width="10" height="50" transform="translate(221 -73) rotate(36)"/><rect class="cls-3" x="184" y="258" width="10" height="50" transform="translate(98 -44) rotate(18)"/><rect class="cls-3" x="146" y="252" width="10" height="50" transform="translate(1 0) rotate(0)"/><rect class="cls-3" x="107" y="258" width="10" height="50" transform="translate(-81 48) rotate(-18)"/></svg>