<?xml version="1.0" encoding="utf-8"?>
<!-- Generator: Adobe Illustrator 21.1.0, SVG Export Plug-In . SVG Version: 6.00 Build 0)  -->
<svg version="1.1" id="Layer_1" xmlns="http://www.w3.org/2000/svg" xmlns:xlink="http://www.w3.org/1999/xlink" x="0px" y="0px"
	 viewBox="0 0 1000 1000" style="enable-background:new 0 0 1000 1000;" xml:space="preserve">
<style type="text/css">
	.st0{fill:#2376BC;}
	.st1{fill:#FFFFFF;}
</style>
<g>
	<circle class="st0" cx="500" cy="500" r="500"/>
</g>
<g>
	<path class="st0" d="M500,765.1c-70.8,0-137.4-27.6-187.4-77.6c-50.1-50.1-77.6-116.6-77.6-187.4c0-70.8,27.6-137.4,77.6-187.4
		c50.1-50.1,116.6-77.6,187.4-77.6c70.8,0,137.4,27.6,187.4,77.6c50.1,50.1,77.6,116.6,77.6,187.4c0,70.8-27.6,137.4-77.6,187.4
		S570.8,765.1,500,765.1z"/>
	<path class="st1" d="M500,278.4c122.4,0,221.6,99.2,221.6,221.6S622.4,721.6,500,721.6S278.4,622.4,278.4,500
		S377.6,278.4,500,278.4 M500,191.4c-41.6,0-82,8.2-120.1,24.3c-36.8,15.5-69.8,37.8-98.1,66.1s-50.6,61.3-66.1,98.1
		c-16.1,38.1-24.3,78.5-24.3,120.1s8.2,82,24.3,120.1c15.5,36.8,37.8,69.8,66.1,98.1c28.3,28.3,61.3,50.6,98.1,66.1
		c38.1,16.1,78.5,24.3,120.1,24.3s82-8.2,120.1-24.3c36.8-15.5,69.8-37.8,98.1-66.1c28.3-28.3,50.6-61.3,66.1-98.1
		c16.1-38.1,24.3-78.5,24.3-120.1s-8.2-82-24.3-120.1c-15.5-36.8-37.8-69.8-66.1-98.1c-28.3-28.3-61.3-50.6-98.1-66.1
		C582,199.6,541.6,191.4,500,191.4L500,191.4z"/>
</g>
<polygon class="st1" points="552.8,224.3 534.8,151.5 500,151.5 465.2,151.5 447.2,224.3 "/>
<polygon class="st1" points="443.3,225 398.8,164.7 366.7,178.1 334.5,191.4 345.7,265.5 "/>
<polygon class="st1" points="342.4,267.7 278.2,229 253.6,253.6 229,278.2 267.7,342.4 "/>
<polygon class="st1" points="265.5,345.7 191.4,334.5 178.1,366.7 164.7,398.8 225,443.3 "/>
<polygon class="st1" points="224.3,447.2 151.5,465.2 151.5,500 151.5,534.8 224.3,552.8 "/>
<polygon class="st1" points="225,556.7 164.7,601.2 178.1,633.3 191.4,665.5 265.5,654.3 "/>
<polygon class="st1" points="267.7,657.6 229,721.8 253.6,746.4 278.2,771 342.4,732.3 "/>
<polygon class="st1" points="345.7,734.5 334.5,808.6 366.7,821.9 398.8,835.3 443.3,775 "/>
<polygon class="st1" points="447.2,775.7 465.2,848.5 500,848.5 534.8,848.5 552.8,775.7 "/>
<polygon class="st1" points="556.7,775 601.2,835.3 633.3,821.9 665.5,808.6 654.3,734.5 "/>
<polygon class="st1" points="657.6,732.3 721.8,771 746.4,746.4 771,721.8 732.3,657.6 "/>
<polygon class="st1" points="734.5,654.3 808.6,665.5 821.9,633.3 835.3,601.2 775,556.7 "/>
<polygon class="st1" points="775.7,552.8 848.5,534.8 848.5,500 848.5,465.2 775.7,447.2 "/>
<polygon class="st1" points="775,443.3 835.3,398.8 821.9,366.7 808.6,334.5 734.5,345.7 "/>
<polygon class="st1" points="732.3,342.4 771,278.2 746.4,253.6 721.8,229 657.6,267.7 "/>
<polygon class="st1" points="654.3,265.5 665.5,191.4 633.3,178.1 601.2,164.7 556.7,225 "/>
</svg>
