<svg id="Layer_1" data-name="Layer 1" xmlns="http://www.w3.org/2000/svg" viewBox="0 0 1000 1000"><defs><style>.cls-1{fill:#0a1c32;}.cls-2{fill:#a4a3a4;}</style></defs><title>track-round-pressed</title><circle class="cls-1" cx="500" cy="500" r="500"/><polygon class="cls-2" points="178.9 564.1 562.95 180.05 562.95 564.1 178.9 564.1"/><path class="cls-1" d="M560.45,186.08V561.6H184.93L560.45,186.08m5-12.07L172.86,566.6H565.45V174Z" transform="translate(0 0)"/><polygon class="cls-2" points="594.13 564.1 594.13 337.01 821.11 564.1 594.13 564.1"/><path class="cls-1" d="M596.63,343,815.07,561.6H596.63V343m-5-12.08V566.6h235.5L591.63,331Z" transform="translate(0 0)"/><polygon class="cls-2" points="594.13 592.86 821.11 592.86 594.13 819.95 594.13 592.86"/><path class="cls-1" d="M815.07,595.36,596.63,813.91V595.36H815.07m12.07-5H591.63V826l235.5-235.63Z" transform="translate(0 0)"/><polygon class="cls-2" points="335.98 592.86 562.95 592.86 562.95 819.95 335.98 592.86"/><path class="cls-1" d="M560.45,595.36V813.91L342,595.36H560.45m5-5H329.95L565.45,826V590.36Z" transform="translate(0 0)"/></svg>