<?xml version="1.0" encoding="utf-8"?>
<!-- Generator: Adobe Illustrator 21.1.0, SVG Export Plug-In . SVG Version: 6.00 Build 0)  -->
<svg version="1.1" id="Layer_1" xmlns="http://www.w3.org/2000/svg" xmlns:xlink="http://www.w3.org/1999/xlink" x="0px" y="0px"
	 viewBox="0 0 1000 1000" style="enable-background:new 0 0 1000 1000;" xml:space="preserve">
<style type="text/css">
	.st0{fill:#2376BC;}
	.st1{fill:#FFFFFF;}
</style>
<g>
	<circle class="st0" cx="500" cy="500" r="500"/>
</g>
<g>
	<g>
		<polygon class="st1" points="178.9,564.1 563,180 563,564.1 		"/>
		<path class="st0" d="M560.5,186.1v375.5H184.9L560.5,186.1 M565.5,174L172.9,566.6h392.6V174L565.5,174z"/>
	</g>
	<g>
		<polygon class="st1" points="594.1,564.1 594.1,337 821.1,564.1 		"/>
		<path class="st0" d="M596.6,343l218.4,218.6H596.6V343 M591.6,331v235.6h235.5L591.6,331L591.6,331z"/>
	</g>
	<g>
		<polygon class="st1" points="594.1,592.9 821.1,592.9 594.1,820 		"/>
		<path class="st0" d="M815.1,595.4L596.6,813.9V595.4H815.1 M827.1,590.4H591.6V826L827.1,590.4L827.1,590.4z"/>
	</g>
	<g>
		<polygon class="st1" points="336,592.9 563,592.9 563,820 		"/>
		<path class="st0" d="M560.5,595.4v218.6L342,595.4H560.5 M565.5,590.4H329.9L565.5,826V590.4L565.5,590.4z"/>
	</g>
</g>
</svg>
